<?xml version="1.0" standalone="no"?>
<!DOCTYPE svg PUBLIC "-//W3C//DTD SVG 20010904//EN"
 "http://www.w3.org/TR/2001/REC-SVG-20010904/DTD/svg10.dtd">
<svg version="1.0" xmlns="http://www.w3.org/2000/svg"
 width="502.000000pt" height="502.000000pt" viewBox="0 0 502.000000 502.000000"
 preserveAspectRatio="xMidYMid meet">
<metadata>
Created by potrace 1.14, written by Peter Selinger 2001-2017
</metadata>
<g transform="translate(0.000000,502.000000) scale(0.100000,-0.100000)"
fill="#000000" stroke="none">
<path d="M4330 4690 c-63 -22 -143 -62 -247 -122 -48 -28 -108 -62 -133 -76
-25 -14 -62 -36 -82 -49 -21 -12 -39 -23 -41 -23 -2 0 -81 -44 -174 -98 -94
-55 -177 -102 -184 -106 -8 -3 -30 -16 -49 -27 -45 -27 -232 -135 -290 -167
-25 -14 -62 -36 -82 -49 -21 -12 -40 -23 -43 -23 -3 0 -22 -11 -43 -23 -20
-13 -57 -35 -82 -49 -212 -118 -237 -136 -349 -248 -42 -42 -87 -91 -101 -109
-14 -19 -30 -40 -37 -47 -22 -22 -113 -169 -113 -181 0 -7 -4 -13 -10 -13 -5
0 -10 -4 -10 -9 0 -5 -18 -47 -40 -94 -22 -46 -40 -90 -40 -98 -1 -31 -27 -51
-62 -45 -18 2 -64 8 -103 11 -38 4 -81 8 -94 10 -14 3 -54 7 -90 10 -36 4 -77
8 -91 10 -28 4 -96 12 -180 20 -64 7 -133 14 -175 20 -16 2 -57 7 -90 10 -33
3 -73 7 -90 10 -16 2 -61 7 -100 10 -38 4 -79 9 -90 11 -27 6 -152 5 -192 0
-72 -11 -201 -68 -258 -116 -41 -35 -135 -132 -135 -141 0 -4 -6 -14 -13 -21
-7 -7 -26 -38 -43 -68 -16 -30 -33 -58 -37 -61 -5 -3 -8 -8 -7 -10 4 -8 -23
-95 -33 -108 -7 -8 -11 -16 -9 -18 6 -7 -11 -104 -19 -108 -4 -3 -4 -19 1 -35
5 -19 5 -28 -1 -25 -5 4 -10 -30 -10 -82 -1 -48 -2 -106 -4 -128 -1 -22 -5
-123 -9 -225 -4 -102 -9 -212 -11 -245 -2 -33 -7 -141 -10 -239 -3 -99 -8
-183 -11 -188 -3 -4 -1 -8 3 -8 5 0 9 -21 10 -47 3 -101 36 -235 86 -343 28
-59 97 -174 108 -178 5 -2 9 -8 9 -14 0 -19 126 -136 195 -180 71 -46 159 -84
217 -93 18 -3 53 -9 78 -15 39 -7 82 -16 240 -45 14 -3 36 -7 50 -10 14 -2 40
-7 58 -10 53 -8 82 -14 162 -30 14 -2 39 -7 55 -10 17 -3 41 -7 55 -10 14 -3
39 -7 55 -10 17 -3 41 -8 55 -10 14 -3 36 -7 50 -10 14 -3 48 -9 75 -15 28 -5
66 -12 85 -15 19 -3 42 -8 50 -10 8 -2 31 -6 50 -9 50 -8 93 -16 110 -21 8 -2
38 -7 65 -11 28 -3 52 -8 55 -9 3 -2 57 -13 120 -24 63 -12 124 -23 135 -25
78 -15 119 -19 180 -17 61 1 110 6 110 11 0 1 9 3 20 5 33 6 48 11 89 28 21 9
42 17 47 17 5 0 9 4 9 10 0 5 3 9 8 8 13 -3 62 25 62 35 0 6 3 8 6 4 11 -11
162 146 156 163 -3 8 -2 12 3 8 4 -4 17 7 29 25 21 31 78 144 76 149 0 2 10
32 23 68 13 36 22 71 19 79 -2 7 2 17 9 22 12 8 12 10 0 18 -8 5 -9 10 -2 12
6 2 13 43 16 94 3 50 8 128 10 175 7 122 15 246 20 315 2 33 7 114 10 180 9
176 13 208 27 220 7 7 198 117 423 245 496 282 496 282 616 402 126 126 246
301 308 448 13 30 29 69 37 85 19 43 62 200 73 270 6 35 9 281 8 595 l-2 535
-27 75 c-15 41 -32 76 -38 78 -6 2 -8 8 -4 13 3 5 0 9 -5 9 -6 0 -11 5 -11 10
0 27 -108 111 -165 128 -44 13 -210 8 -255 -8z m95 -324 c11 -2 23 -4 27 -5 3
0 23 -17 43 -37 35 -33 59 -78 74 -134 8 -34 8 -1007 -1 -1045 -4 -16 -10 -43
-13 -60 -15 -72 -103 -254 -142 -293 -7 -7 -13 -17 -13 -21 0 -14 -130 -141
-173 -169 -23 -15 -45 -31 -48 -35 -3 -5 -9 -8 -13 -7 -3 0 -33 -15 -65 -33
-32 -19 -108 -63 -170 -98 -62 -35 -127 -72 -144 -82 -18 -11 -88 -51 -157
-89 -69 -39 -133 -78 -142 -86 -10 -8 -18 -12 -18 -9 0 4 -21 -7 -47 -23 -26
-17 -50 -30 -53 -30 -3 0 -5 18 -4 40 0 22 -2 40 -6 40 -4 0 -7 8 -7 18 1 32
-15 112 -24 118 -5 3 -7 10 -3 15 3 5 1 16 -5 23 -6 7 -12 21 -14 32 -2 10 -9
32 -15 47 -7 16 -12 33 -12 38 0 5 -5 9 -10 9 -6 0 -9 3 -8 8 3 15 -30 74 -86
152 -44 61 -171 187 -198 196 -10 3 -18 9 -18 14 0 4 -11 11 -25 14 -14 4 -25
11 -25 17 0 6 -4 7 -10 4 -5 -3 -10 -2 -10 3 0 8 -35 23 -44 19 -1 -1 -10 4
-19 12 -10 7 -17 10 -17 6 0 -4 -6 -2 -14 4 -7 6 -25 12 -40 13 -14 1 -26 6
-26 10 0 4 -3 7 -7 6 -5 -1 -39 2 -78 7 -38 5 -77 9 -85 10 -102 9 -170 19
-170 26 0 6 6 25 14 44 8 18 12 36 8 39 -3 3 1 6 8 6 7 0 11 3 8 6 -6 5 58
132 71 144 3 3 19 24 35 48 36 52 108 128 156 164 29 22 379 227 430 251 8 4
24 13 35 20 11 7 94 55 185 107 91 52 174 100 185 107 11 7 27 16 35 20 8 4
83 46 165 93 83 48 170 98 195 112 25 14 86 49 135 78 211 122 252 135 370
116z m-3340 -1491 c92 -10 110 -13 110 -15 0 -1 16 -4 35 -5 31 -3 105 -11
180 -20 14 -2 25 -4 25 -5 0 -1 23 -3 50 -5 28 -2 68 -6 90 -9 55 -8 182 -22
265 -31 19 -2 35 -4 35 -5 0 -2 71 -9 120 -12 17 -1 33 -7 37 -13 5 -6 8 -5 8
3 0 9 5 10 19 3 10 -6 21 -7 25 -4 14 15 16 -47 19 -547 l2 -515 25 -70 c13
-38 28 -71 32 -73 4 -2 8 -10 8 -17 0 -7 7 -15 15 -19 8 -3 15 -11 15 -18 0
-8 10 -22 23 -32 12 -10 31 -27 43 -38 49 -44 189 -72 274 -54 14 3 38 9 54
12 51 11 145 58 326 163 149 86 176 98 181 83 4 -9 4 -21 1 -27 -4 -5 -7 -38
-8 -73 -1 -34 -4 -65 -8 -69 -3 -3 -1 -12 5 -20 6 -7 8 -13 3 -13 -5 0 -9 -30
-8 -68 0 -37 -2 -71 -5 -77 -10 -20 -8 -75 3 -75 6 0 5 -4 -3 -9 -9 -6 -12
-24 -10 -60 2 -28 2 -51 -1 -51 -3 0 -6 -30 -7 -68 -2 -64 -10 -157 -13 -157
-1 0 -3 -8 -6 -18 -9 -36 -10 -43 -18 -67 -13 -41 -39 -94 -53 -108 -7 -7 -13
-18 -13 -23 0 -15 -84 -109 -98 -109 -6 0 -13 -7 -16 -16 -4 -9 -9 -14 -13
-10 -4 3 -16 -2 -27 -13 -52 -47 -222 -78 -311 -56 -16 4 -41 9 -55 10 -14 2
-25 4 -25 5 0 3 -26 7 -72 11 -18 2 -33 6 -33 9 0 3 -10 5 -22 6 -13 0 -39 4
-58 8 -19 4 -52 9 -72 9 -21 1 -38 5 -38 9 0 4 -8 7 -17 6 -22 0 -138 18 -138
22 0 1 -11 3 -25 6 -14 2 -38 7 -55 10 -16 3 -41 7 -55 9 -14 1 -25 3 -25 5 0
1 -13 3 -30 5 -16 1 -30 3 -30 4 0 3 -66 13 -92 14 -13 1 -23 4 -23 7 0 3 -15
7 -33 8 -18 1 -44 5 -57 7 -14 3 -43 8 -65 11 -22 4 -47 9 -55 13 -8 4 -30 7
-47 7 -18 -1 -33 2 -33 6 0 4 -9 5 -20 3 -11 -2 -22 0 -25 5 -3 4 -16 7 -30 5
-14 -1 -25 1 -25 4 0 4 -12 6 -27 6 -16 -1 -32 1 -38 4 -5 3 -19 7 -30 8 -11
2 -33 6 -50 9 -16 4 -42 7 -57 8 -16 0 -28 5 -28 9 0 4 -6 7 -12 5 -7 -1 -35
2 -63 7 -27 5 -57 10 -65 11 -119 19 -265 122 -326 230 -6 10 -17 30 -25 44
-8 14 -16 27 -19 30 -8 7 -35 94 -32 103 1 4 -2 7 -6 7 -5 0 -9 6 -9 13 0 6
-5 28 -9 47 -14 59 -10 344 12 760 2 47 6 148 9 225 8 200 12 244 24 295 16
63 16 61 34 104 9 21 17 40 17 43 0 14 70 104 109 141 44 41 161 110 161 95 0
-4 5 -2 12 5 12 12 139 10 263 -3z m1345 -161 c94 -7 120 -9 120 -14 0 -3 24
-6 52 -7 117 -6 236 -62 327 -154 32 -33 66 -75 77 -94 10 -19 22 -35 27 -35
4 0 5 -4 2 -10 -3 -5 -1 -10 4 -10 6 0 11 -4 11 -9 0 -5 8 -26 17 -47 17 -40
22 -57 25 -86 1 -10 5 -18 8 -18 7 0 9 -7 13 -67 1 -23 5 -44 7 -47 3 -3 5
-35 4 -73 -2 -61 -5 -69 -30 -89 -15 -13 -45 -30 -66 -40 -21 -9 -38 -21 -38
-26 0 -4 -6 -8 -14 -8 -7 0 -26 -10 -42 -22 -16 -13 -31 -22 -34 -22 -3 1 -34
-15 -70 -36 -98 -57 -151 -82 -184 -88 -38 -6 -94 -6 -121 1 -11 3 -25 6 -32
6 -35 3 -104 96 -119 163 -5 22 -16 140 -15 166 2 32 2 46 1 98 -1 31 1 58 4
61 3 3 1 13 -4 22 -5 10 -5 23 0 31 5 8 5 21 -1 31 -6 12 -5 20 1 24 6 4 8 10
6 14 -5 7 -6 37 -7 139 0 28 0 60 -1 70 0 9 0 33 1 52 1 34 1 51 1 99 0 30 9
43 23 34 7 -4 28 -8 47 -9z"/>
</g>
</svg>
